<svg width="679" height="641" viewBox="0 0 679 641" fill="none" xmlns="http://www.w3.org/2000/svg">
<path d="M490.418 232.503L467.831 222.272L460.451 227.022C444.737 206.427 424.003 189.707 400 178.272C375.997 166.838 349.431 161.027 322.547 161.329C295.663 161.632 269.252 168.039 245.544 180.01C221.837 191.98 201.53 209.163 186.34 230.105H182.617V235.46C182.454 235.706 182.291 235.952 182.129 236.199H157.048C154.238 236.199 151.456 236.721 148.86 237.737C146.264 238.752 143.905 240.24 141.918 242.116C139.932 243.992 138.356 246.219 137.281 248.67C136.206 251.12 135.653 253.747 135.653 256.4C135.653 261.757 137.907 266.894 141.92 270.682C145.932 274.469 151.374 276.597 157.048 276.598H163.285C151.902 314.935 156.238 355.914 175.429 391.368C194.619 426.822 227.254 454.15 266.832 467.905C267.275 468.059 267.723 468.202 268.166 468.353C268.934 468.611 269.701 468.871 270.474 469.119C270.688 469.188 270.902 469.258 271.116 469.325L271.138 469.335C271.625 469.488 272.116 469.634 272.609 469.784C273.062 469.923 273.515 470.064 273.967 470.2C274.139 470.251 274.307 470.307 274.482 470.354C274.907 470.48 275.334 470.597 275.76 470.72L276.076 470.81C276.482 470.926 276.886 471.046 277.293 471.158C277.564 471.233 277.837 471.306 278.108 471.379C278.603 471.514 279.1 471.644 279.595 471.775L279.906 471.857C280.154 471.921 280.401 471.991 280.651 472.055C281.037 472.154 281.427 472.245 281.816 472.341C282.31 472.464 282.805 472.587 283.3 472.705C283.546 472.764 283.789 472.826 284.035 472.884C284.344 472.956 284.655 473.023 284.965 473.097L285.757 473.277C286.169 473.369 286.58 473.465 286.993 473.555L287.439 473.65C287.876 473.744 288.315 473.829 288.751 473.919C289.374 474.047 289.996 474.178 290.621 474.3L291.043 474.38C291.466 474.462 291.892 474.535 292.316 474.614C292.995 474.738 293.669 474.862 294.353 474.979C294.518 475.008 294.683 475.04 294.848 475.068C295.114 475.113 295.383 475.151 295.649 475.194L295.858 475.228C296.522 475.337 297.185 475.443 297.85 475.548C298.153 475.594 298.454 475.641 298.755 475.685C299.056 475.729 299.377 475.772 299.687 475.815C300.248 475.894 300.81 475.97 301.372 476.044C301.814 476.101 302.258 476.159 302.703 476.214C302.979 476.248 303.254 476.283 303.531 476.32C303.995 476.375 304.461 476.427 304.926 476.475C305.447 476.533 305.968 476.59 306.489 476.642C306.777 476.671 307.062 476.704 307.348 476.732C307.556 476.752 307.766 476.767 307.974 476.786C308.154 476.803 308.335 476.817 308.515 476.834C309.032 476.88 309.549 476.927 310.068 476.969C310.458 477.001 310.849 477.032 311.242 477.061C311.62 477.089 311.999 477.113 312.374 477.139C312.802 477.168 313.228 477.199 313.657 477.224C314.171 477.255 314.686 477.281 315.202 477.308C315.606 477.329 316.01 477.351 316.415 477.37C316.7 477.382 316.981 477.396 317.271 477.408C317.96 477.436 318.651 477.454 319.343 477.474C319.721 477.485 320.096 477.5 320.474 477.508L320.901 477.519C322.116 477.544 323.333 477.557 324.552 477.558C325.771 477.558 326.988 477.546 328.203 477.519L328.628 477.508C329.007 477.5 329.383 477.485 329.76 477.474C330.451 477.454 331.143 477.436 331.832 477.408L332.687 477.37C333.091 477.351 333.496 477.329 333.9 477.308C334.415 477.281 334.931 477.255 335.445 477.224C335.874 477.199 336.301 477.168 336.729 477.139C337.108 477.113 337.488 477.089 337.86 477.061C338.232 477.033 338.643 477.001 339.035 476.969C339.553 476.927 340.07 476.88 340.586 476.834C340.767 476.817 340.948 476.803 341.128 476.786C341.337 476.767 341.546 476.752 341.754 476.732C342.041 476.704 342.32 476.671 342.612 476.642C343.134 476.59 343.655 476.535 344.175 476.475C344.641 476.424 345.107 476.375 345.571 476.32C345.849 476.287 346.124 476.252 346.4 476.214C346.844 476.159 347.288 476.107 347.731 476.044C348.293 475.973 348.854 475.896 349.416 475.815C349.726 475.772 350.037 475.731 350.347 475.685C350.657 475.639 350.951 475.594 351.252 475.548C351.918 475.447 352.582 475.34 353.246 475.228L353.453 475.194C353.72 475.151 353.99 475.113 354.256 475.068C354.421 475.04 354.585 475.008 354.75 474.979C355.429 474.862 356.108 474.738 356.787 474.614C357.211 474.535 357.637 474.462 358.059 474.38L358.483 474.3C359.108 474.178 359.727 474.047 360.352 473.919C360.789 473.829 361.228 473.744 361.665 473.65L362.111 473.555C362.524 473.465 362.933 473.369 363.345 473.277C363.611 473.217 363.876 473.158 364.137 473.097C364.448 473.027 364.759 472.961 365.068 472.884C365.313 472.826 365.557 472.764 365.802 472.705C366.298 472.587 366.792 472.464 367.287 472.341C367.675 472.245 368.064 472.154 368.451 472.055C368.7 471.991 368.947 471.921 369.196 471.857L369.506 471.775C370.003 471.644 370.5 471.514 370.994 471.379C371.266 471.306 371.539 471.233 371.809 471.158C372.216 471.046 372.62 470.926 373.026 470.81L373.341 470.72C373.768 470.597 374.195 470.48 374.619 470.354C374.792 470.304 374.958 470.247 375.135 470.2C375.588 470.064 376.04 469.923 376.487 469.784C376.976 469.634 377.467 469.488 377.959 469.335L377.981 469.325C378.196 469.258 378.41 469.188 378.624 469.119C379.397 468.871 380.163 468.611 380.93 468.353C381.375 468.202 381.823 468.059 382.266 467.905C420.923 454.476 452.992 428.083 472.355 393.761C491.719 359.439 497.023 319.59 487.255 281.812L543.347 256.4L490.418 232.503Z" fill="white"/>
<path d="M324.332 477.545C416.832 477.545 491.818 406.755 491.818 319.431C491.818 232.108 416.832 161.318 324.332 161.318C231.831 161.318 156.845 232.108 156.845 319.431C156.845 406.755 231.831 477.545 324.332 477.545Z" fill="#1895DE"/>
<path d="M324.333 436.804C392.998 436.804 448.663 384.255 448.663 319.432C448.663 254.609 392.998 202.059 324.333 202.059C255.667 202.059 200.002 254.609 200.002 319.432C200.002 384.255 255.667 436.804 324.333 436.804Z" fill="#28B1D5"/>
<path d="M324.332 477.545C416.832 477.545 491.818 406.755 491.818 319.431C491.818 232.108 416.832 161.318 324.332 161.318C231.831 161.318 156.845 232.108 156.845 319.431C156.845 406.755 231.831 477.545 324.332 477.545Z" stroke="#020129" stroke-width="13.3333" stroke-linecap="round" stroke-linejoin="round"/>
<path d="M156.833 236.202H417.132V276.598H156.833C154.023 276.598 151.241 276.076 148.645 275.061C146.049 274.045 143.691 272.558 141.704 270.682C139.717 268.807 138.141 266.58 137.066 264.129C135.991 261.679 135.437 259.052 135.437 256.4C135.437 253.748 135.991 251.121 137.066 248.671C138.141 246.22 139.717 243.994 141.704 242.118C143.691 240.242 146.049 238.755 148.645 237.74C151.241 236.725 154.023 236.202 156.833 236.202Z" fill="#D7182E"/>
<path opacity="0.93" d="M136.408 250.372C135.763 252.323 135.435 254.356 135.437 256.4C135.437 259.053 135.991 261.679 137.066 264.13C138.141 266.58 139.717 268.807 141.704 270.682C143.691 272.558 146.049 274.046 148.645 275.061C151.241 276.076 154.023 276.598 156.833 276.598H417.132V264.541H156.833C152.273 264.541 147.834 263.166 144.16 260.617C140.486 258.069 137.77 254.479 136.408 250.372Z" fill="#890C27"/>
<path opacity="0.67" d="M156.833 236.202C154.023 236.202 151.241 236.725 148.645 237.74C146.049 238.755 143.691 240.242 141.704 242.118C139.717 243.994 138.141 246.22 137.066 248.671C135.991 251.121 135.437 253.748 135.437 256.4C135.441 257.889 135.62 259.374 135.969 260.826C137.032 256.351 139.678 252.351 143.47 249.485C147.262 246.618 151.975 245.056 156.833 245.054H417.132V236.202H156.833Z" fill="#FFA663"/>
<path d="M156.833 236.202H417.132V276.598H156.833C154.023 276.598 151.241 276.076 148.645 275.061C146.049 274.045 143.691 272.558 141.704 270.682C139.717 268.807 138.141 266.58 137.066 264.129C135.991 261.679 135.437 259.052 135.437 256.4C135.437 253.748 135.991 251.121 137.066 248.671C138.141 246.22 139.717 243.994 141.704 242.118C143.691 240.242 146.049 238.755 148.645 237.74C151.241 236.725 154.023 236.202 156.833 236.202Z" stroke="#020129" stroke-width="13.3333" stroke-linecap="round" stroke-linejoin="round"/>
<path d="M433.727 230.105H417.129V282.695H433.727V230.105Z" fill="#FFDC7B"/>
<path opacity="0.43" d="M433.727 230.014H417.129V242.573H433.727V230.014Z" fill="white"/>
<path d="M433.727 266.712H417.129V282.786H433.727V266.712Z" fill="#F48D31"/>
<path d="M433.727 230.105H417.129V282.695H433.727V230.105Z" stroke="#020129" stroke-width="13.3333" stroke-linecap="round" stroke-linejoin="round"/>
<path d="M199 230.105H182.402V282.695H199V230.105Z" fill="#FFDC7B"/>
<path opacity="0.43" d="M199 230.105H182.402V242.664H199V230.105Z" fill="white"/>
<path d="M199 266.804H182.402V282.878H199V266.804Z" fill="#F48D31"/>
<path d="M199 230.105H182.402V282.695H199V230.105Z" stroke="#020129" stroke-width="13.3333" stroke-linecap="round" stroke-linejoin="round"/>
<path d="M433.791 268.547L467.886 290.488L543.132 256.4L467.63 222.311L433.791 244.254V268.547Z" fill="#F48D31"/>
<path d="M433.791 268.547L467.884 290.488L543.132 256.4H433.791V268.547Z" fill="#EE6E31"/>
<path d="M433.791 261.6L469.186 272.909L543.132 256.4L467.886 290.488L433.791 268.547V261.6Z" fill="#E65331"/>
<path d="M433.524 251.161L468.919 232.634L533.109 256.4L467.618 222.272L433.524 244.213V251.161Z" fill="#FFE085"/>
<path d="M433.791 268.547L467.886 290.488L543.132 256.4L467.63 222.311L433.791 244.254V268.547Z" stroke="#020129" stroke-width="13.3333" stroke-linecap="round" stroke-linejoin="round"/>
<path d="M543.562 256.4H480.189" stroke="#020129" stroke-width="13.3333" stroke-linecap="round" stroke-linejoin="round"/>
<path d="M481.145 265.252C486.323 265.252 490.522 261.289 490.522 256.4C490.522 251.511 486.323 247.548 481.145 247.548C475.966 247.548 471.768 251.511 471.768 256.4C471.768 261.289 475.966 265.252 481.145 265.252Z" fill="#020129"/>
<path d="M366.769 327.33H281.894V466.989H366.769V327.33Z" fill="#FFA183"/>
<path d="M366.769 327.33H281.894V466.989H366.769V327.33Z" fill="#F9A991"/>
<g style="mix-blend-mode:multiply" opacity="0.58">
<path d="M281.898 365.12C290.239 369.175 299.487 371.287 308.869 371.28H339.802C349.184 371.287 358.431 369.175 366.773 365.12V327.33H281.898V365.12Z" fill="#FFA183"/>
</g>
<path d="M366.769 327.33H281.894V466.989H366.769V327.33Z" stroke="#020129" stroke-width="13.3333" stroke-linecap="round" stroke-linejoin="round"/>
<path d="M258.698 244.064H389.972V315.372C389.972 327.933 384.686 339.98 375.277 348.862C365.868 357.745 353.107 362.734 339.802 362.734H308.865C295.56 362.734 282.8 357.743 273.392 348.861C263.984 339.979 258.698 327.933 258.698 315.372V244.064Z" fill="#F9A991"/>
<path d="M339.797 347.608H308.865C295.56 347.607 282.799 342.617 273.391 333.734C263.983 324.852 258.698 312.805 258.698 300.245V315.372C258.698 321.592 259.996 327.751 262.517 333.497C265.038 339.243 268.734 344.465 273.393 348.863C278.051 353.261 283.582 356.749 289.669 359.13C295.756 361.51 302.28 362.735 308.869 362.734H339.8C346.389 362.735 352.913 361.51 359 359.13C365.087 356.749 370.618 353.261 375.277 348.863C379.936 344.465 383.631 339.243 386.153 333.497C388.674 327.751 389.972 321.592 389.972 315.372V300.245C389.972 306.465 388.674 312.624 386.152 318.37C383.631 324.117 379.935 329.339 375.276 333.737C370.616 338.135 365.085 341.624 358.998 344.004C352.91 346.384 346.386 347.608 339.797 347.608Z" fill="#F98568"/>
<path d="M258.698 244.064H389.972V315.372C389.972 327.933 384.686 339.98 375.277 348.862C365.868 357.745 353.107 362.734 339.802 362.734H308.865C295.56 362.734 282.8 357.743 273.392 348.861C263.984 339.979 258.698 327.933 258.698 315.372V244.064Z" stroke="#020129" stroke-width="13.3333" stroke-linecap="round" stroke-linejoin="round"/>
<path d="M291.513 235.878C291.513 227.323 284.167 220.388 275.104 220.388C266.042 220.388 258.695 227.323 258.695 235.878V270.993C258.695 279.549 266.042 286.484 275.104 286.484C284.167 286.484 291.513 279.549 291.513 270.993V235.878Z" fill="#F9A991"/>
<path d="M324.332 228.796C324.332 220.241 316.985 213.306 307.923 213.306C298.86 213.306 291.514 220.241 291.514 228.796V270.877C291.514 279.432 298.86 286.368 307.923 286.368C316.985 286.368 324.332 279.432 324.332 270.877V228.796Z" fill="#F9A991"/>
<path d="M357.15 227.505C357.15 218.949 349.804 212.014 340.741 212.014C331.679 212.014 324.332 218.949 324.332 227.505V270.877C324.332 279.432 331.679 286.368 340.741 286.368C349.804 286.368 357.15 279.432 357.15 270.877V227.505Z" fill="#F9A991"/>
<path d="M389.968 237.059C389.968 228.504 382.622 221.568 373.559 221.568C364.497 221.568 357.15 228.504 357.15 237.059V268.629C357.15 277.185 364.497 284.12 373.559 284.12C382.622 284.12 389.968 277.185 389.968 268.629V237.059Z" fill="#F9A991"/>
<path d="M279.225 270.502H270.983C269.369 270.502 267.771 270.201 266.28 269.618C264.789 269.034 263.434 268.179 262.294 267.101C261.153 266.023 260.248 264.744 259.631 263.336C259.015 261.928 258.697 260.419 258.698 258.896V270.993C258.698 275.102 260.427 279.042 263.504 281.947C266.582 284.852 270.756 286.484 275.108 286.484C279.46 286.484 283.633 284.852 286.711 281.947C289.788 279.042 291.517 275.102 291.517 270.993V258.896C291.517 260.42 291.2 261.929 290.583 263.338C289.965 264.746 289.06 266.026 287.918 267.103C286.777 268.181 285.421 269.036 283.93 269.619C282.438 270.203 280.839 270.502 279.225 270.502Z" fill="#F98568"/>
<path d="M312.043 270.38H303.801C300.543 270.379 297.418 269.156 295.115 266.981C292.811 264.806 291.517 261.856 291.517 258.78V270.877C291.517 274.985 293.246 278.925 296.323 281.83C299.401 284.735 303.574 286.367 307.926 286.367C312.278 286.367 316.452 284.735 319.529 281.83C322.607 278.925 324.335 274.985 324.335 270.877V258.78C324.335 260.303 324.017 261.812 323.4 263.22C322.782 264.628 321.876 265.907 320.735 266.984C319.593 268.061 318.238 268.915 316.747 269.498C315.256 270.081 313.657 270.38 312.043 270.38Z" fill="#F98568"/>
<g style="mix-blend-mode:multiply" opacity="0.58">
<path d="M344.861 270.38H336.619C333.361 270.379 330.237 269.156 327.933 266.981C325.629 264.806 324.335 261.856 324.335 258.78V270.877C324.335 274.985 326.064 278.925 329.141 281.83C332.219 284.735 336.392 286.367 340.744 286.367C345.096 286.367 349.27 284.735 352.347 281.83C355.425 278.925 357.154 274.985 357.154 270.877V258.78C357.154 260.303 356.836 261.812 356.218 263.22C355.6 264.628 354.694 265.907 353.553 266.984C352.411 268.061 351.056 268.915 349.565 269.498C348.074 270.081 346.475 270.38 344.861 270.38Z" fill="#FFA183"/>
</g>
<g style="mix-blend-mode:multiply" opacity="0.58">
<path d="M377.679 268.133H369.438C366.179 268.132 363.054 266.909 360.751 264.734C358.447 262.558 357.153 259.608 357.153 256.532V268.628C357.153 272.737 358.882 276.677 361.959 279.582C365.037 282.487 369.211 284.119 373.562 284.119C377.914 284.119 382.088 282.487 385.166 279.582C388.243 276.677 389.972 272.737 389.972 268.628V256.532C389.972 258.055 389.654 259.564 389.036 260.972C388.418 262.38 387.513 263.659 386.371 264.736C385.23 265.813 383.875 266.668 382.383 267.251C380.892 267.833 379.294 268.133 377.679 268.133Z" fill="#FFA183"/>
</g>
<path opacity="0.43" d="M275.108 220.388C270.756 220.388 266.582 222.02 263.504 224.925C260.427 227.83 258.698 231.77 258.698 235.878V246.134C258.698 244.1 259.123 242.086 259.947 240.206C260.772 238.327 261.981 236.619 263.504 235.181C265.028 233.742 266.837 232.601 268.828 231.823C270.819 231.044 272.953 230.644 275.108 230.644C277.262 230.644 279.396 231.044 281.387 231.823C283.378 232.601 285.187 233.742 286.711 235.181C288.234 236.619 289.443 238.327 290.268 240.206C291.092 242.086 291.517 244.1 291.517 246.134V235.878C291.517 231.77 289.788 227.83 286.711 224.925C283.633 222.02 279.46 220.388 275.108 220.388Z" fill="white"/>
<path opacity="0.43" d="M307.926 213.306C303.574 213.306 299.401 214.938 296.323 217.843C293.246 220.748 291.517 224.688 291.517 228.796V239.052C291.517 234.944 293.246 231.004 296.323 228.099C299.401 225.194 303.574 223.562 307.926 223.562C312.278 223.562 316.452 225.194 319.529 228.099C322.607 231.004 324.335 234.944 324.335 239.052V228.796C324.335 224.688 322.607 220.748 319.529 217.843C316.452 214.938 312.278 213.306 307.926 213.306Z" fill="white"/>
<path opacity="0.43" d="M340.744 212.014C336.392 212.014 332.219 213.646 329.141 216.551C326.064 219.456 324.335 223.396 324.335 227.505V237.761C324.335 233.652 326.064 229.712 329.141 226.807C332.219 223.902 336.392 222.27 340.744 222.27C345.096 222.27 349.27 223.902 352.347 226.807C355.425 229.712 357.154 233.652 357.154 237.761V227.505C357.154 223.396 355.425 219.456 352.347 216.551C349.27 213.646 345.096 212.014 340.744 212.014Z" fill="white"/>
<path opacity="0.43" d="M373.562 221.573C369.211 221.573 365.037 223.205 361.959 226.11C358.882 229.015 357.153 232.955 357.153 237.063V247.32C357.153 243.211 358.882 239.271 361.959 236.366C365.037 233.461 369.211 231.829 373.562 231.829C377.914 231.829 382.088 233.461 385.166 236.366C388.243 239.271 389.972 243.211 389.972 247.32V237.063C389.972 232.955 388.243 229.015 385.166 226.11C382.088 223.205 377.914 221.573 373.562 221.573Z" fill="white"/>
<path d="M291.513 235.878C291.513 227.323 284.167 220.388 275.104 220.388C266.042 220.388 258.695 227.323 258.695 235.878V270.993C258.695 279.549 266.042 286.484 275.104 286.484C284.167 286.484 291.513 279.549 291.513 270.993V235.878Z" stroke="#020129" stroke-width="13.3333" stroke-linecap="round" stroke-linejoin="round"/>
<path d="M324.332 228.796C324.332 220.241 316.985 213.306 307.923 213.306C298.86 213.306 291.514 220.241 291.514 228.796V270.877C291.514 279.432 298.86 286.368 307.923 286.368C316.985 286.368 324.332 279.432 324.332 270.877V228.796Z" stroke="#020129" stroke-width="13.3333" stroke-linecap="round" stroke-linejoin="round"/>
<path d="M357.15 227.505C357.15 218.949 349.804 212.014 340.741 212.014C331.679 212.014 324.332 218.949 324.332 227.505V270.877C324.332 279.432 331.679 286.368 340.741 286.368C349.804 286.368 357.15 279.432 357.15 270.877V227.505Z" stroke="#020129" stroke-width="13.3333" stroke-linecap="round" stroke-linejoin="round"/>
<path d="M389.968 237.059C389.968 228.504 382.622 221.568 373.559 221.568C364.497 221.568 357.15 228.504 357.15 237.059V268.629C357.15 277.185 364.497 284.12 373.559 284.12C382.622 284.12 389.968 277.185 389.968 268.629V237.059Z" stroke="#020129" stroke-width="13.3333" stroke-linecap="round" stroke-linejoin="round"/>
<path d="M366.773 303.891H338.481C334.129 303.891 329.955 302.259 326.878 299.354C323.801 296.449 322.072 292.509 322.072 288.4C322.072 284.292 323.801 280.352 326.878 277.447C329.955 274.541 334.129 272.909 338.481 272.909H373.563C377.915 272.909 382.089 274.541 385.166 277.447C388.243 280.352 389.972 284.292 389.972 288.4V303.891H366.773Z" fill="#F9A991"/>
<path d="M338.482 294.467C335.003 294.466 331.613 293.422 328.804 291.484C325.994 289.547 323.91 286.816 322.851 283.687C322.115 285.861 321.897 288.162 322.212 290.425C322.804 294.196 324.823 297.637 327.894 300.112C330.966 302.586 334.883 303.927 338.921 303.886H371.346C371.346 301.387 370.294 298.99 368.422 297.222C366.55 295.455 364.011 294.462 361.363 294.462L338.482 294.467Z" fill="#F98568"/>
<path opacity="0.43" d="M373.563 272.909H338.482C335.917 272.909 333.388 273.477 331.098 274.566C328.807 275.656 326.819 277.237 325.293 279.182C323.767 281.128 322.746 283.385 322.31 285.771C321.875 288.157 322.038 290.606 322.786 292.921C323.813 289.747 325.892 286.967 328.717 284.993C331.543 283.018 334.966 281.952 338.482 281.952H373.563C377.915 281.952 382.089 283.584 385.166 286.489C388.244 289.394 389.972 293.334 389.972 297.443V288.4C389.972 284.292 388.244 280.352 385.166 277.447C382.089 274.541 377.915 272.909 373.563 272.909Z" fill="white"/>
<path d="M366.773 303.891H338.481C334.129 303.891 329.955 302.259 326.878 299.354C323.801 296.449 322.072 292.509 322.072 288.4V288.4C322.072 284.292 323.801 280.352 326.878 277.447C329.955 274.541 334.129 272.909 338.481 272.909H373.563C377.915 272.909 382.089 274.541 385.166 277.447C388.243 280.352 389.972 284.292 389.972 288.4V303.891" stroke="#020129" stroke-width="13.3333" stroke-linecap="round" stroke-linejoin="round"/>
<path d="M334.915 283.687H342.982C344.466 283.695 345.892 283.146 346.947 282.161C348.002 281.176 348.6 279.836 348.608 278.435V278.435" stroke="#0A002D" stroke-width="6.70326" stroke-linecap="round" stroke-linejoin="round"/>
<path d="M266.62 467.905C303.892 480.758 344.778 480.758 382.05 467.905V397.16H266.62V467.905Z" fill="#2561A1"/>
<path d="M266.62 467.905C303.892 480.758 344.778 480.758 382.05 467.905V397.16H266.62V467.905Z" fill="#2561A1"/>
<path d="M266.62 467.905C303.892 480.758 344.778 480.758 382.05 467.905V397.16H266.62V467.905Z" fill="#2561A1"/>
<path d="M266.62 397.16V467.905C285.107 474.302 304.646 477.565 324.335 477.545V397.16H266.62Z" fill="#1C5393"/>
<path d="M382.047 397.16H266.617V406.323H382.047V397.16Z" fill="#A4C7E2"/>
<path d="M266.62 463.696C266.622 464.943 267.039 466.158 267.811 467.17C268.584 468.182 269.674 468.939 270.927 469.335C305.588 480.281 343.081 480.281 377.742 469.335C378.995 468.939 380.085 468.182 380.858 467.17C381.631 466.159 382.048 464.943 382.05 463.696V397.16H266.62V463.696Z" stroke="#020129" stroke-width="13.3333" stroke-linecap="round" stroke-linejoin="round"/>
</svg>
